<svg width="284" height="224" fill="none" xmlns="http://www.w3.org/2000/svg"><path d="M255.937 0H28.063C12.564 0 0 12.536 0 28v168c0 15.464 12.564 28 28.063 28h227.874C271.436 224 284 211.464 284 196V28c0-15.464-12.564-28-28.063-28z" fill="#744FFF"/><path d="M193.313 129.581h5.466v-27.684l-5.466.485v27.199zm2.715-38.94a3.731 3.731 0 00-2.659 1.113 3.714 3.714 0 00-1.066 2.674c.01.98.407 1.915 1.104 2.604a3.732 3.732 0 005.242 0 3.711 3.711 0 001.104-2.604 3.777 3.777 0 00-1.085-2.654 3.794 3.794 0 00-2.64-1.131v-.001zm44.457 11.256l-7.867 18.236-8.391-18.236h-10.896V99.5c0-2.848 1.322-4.03 4.038-4.03.94.017 1.875.145 2.785.383l1.218-4.342a16.374 16.374 0 00-5.361-.834c-5.292 0-8.146 3.439-8.146 8.44v2.779l-4.665.384v4.375h4.665v22.926h5.466v-22.96h7.135l9.469 19.694c-.8 1.737-1.775 3.683-3.307 4.863-1.358 1.077-3.098 1.181-4.77.834l-1.287 4.48c2.471.903 5.57.799 7.867-.452 2.507-1.39 4.178-3.995 5.292-6.565l12.533-27.683h-5.813v.104l.035.001zm-65.275 23.55c-4.561-.035-8.39-3.786-8.39-9.726 0-5.973 3.794-9.691 8.39-9.76 4.56.034 8.39 3.786 8.39 9.76 0 5.94-3.83 9.726-8.39 9.726zm0-24.314a11.838 11.838 0 00-8.46 3.438v-13.13l-5.117.452v37.722h5.117v-2.674a11.858 11.858 0 008.46 3.439c7.729-.035 13.647-6.114 13.647-14.624 0-8.51-5.953-14.554-13.647-14.623zm-59.775 4.897a8.361 8.361 0 014.203 1.282 8.341 8.341 0 012.969 3.235l4.421-2.744a13.2 13.2 0 00-4.888-4.908 13.238 13.238 0 00-6.705-1.762c-7.764.034-13.647 6.113-13.647 14.623 0 8.51 5.883 14.554 13.647 14.624 2.354.025 4.672-.58 6.711-1.753a13.138 13.138 0 004.882-4.918l-4.421-2.744c-1.462 2.744-4.178 4.518-7.172 4.518-4.561-.035-8.39-3.786-8.39-9.761 0-5.974 3.829-9.657 8.39-9.692zm27.329 19.417c-4.561-.035-8.391-3.786-8.391-9.726 0-5.973 3.795-9.691 8.391-9.76 4.56.034 8.39 3.786 8.39 9.759-.035 5.941-3.83 9.727-8.39 9.727zm8.459-20.876a11.825 11.825 0 00-8.459-3.438c-7.729.034-13.647 6.113-13.647 14.623 0 8.51 5.883 14.554 13.647 14.624a11.861 11.861 0 004.576-.872 11.825 11.825 0 003.883-2.567v2.674h5.118v-27.753l-5.118.452v2.257zm-95.145 21.536l10.235 10.351 10.235-10.351a4.782 4.782 0 013.394-1.407 4.79 4.79 0 013.395 1.407 4.902 4.902 0 010 6.878l-16.99 17.194-17.058-17.194a24.556 24.556 0 01-7.032-17.194c0-13.408 10.757-24.315 24.022-24.315a23.91 23.91 0 019.21 1.858 23.861 23.861 0 017.777 5.263 4.9 4.9 0 010 6.877 4.8 4.8 0 01-5.232 1.042 4.8 4.8 0 01-1.556-1.042 14.339 14.339 0 00-10.235-4.272c-7.972 0-14.447 6.53-14.447 14.623a14.867 14.867 0 004.282 10.282zm10.2-20.077a9.623 9.623 0 016.789 2.849 9.577 9.577 0 0013.612 0 9.866 9.866 0 000-13.756 28.821 28.821 0 00-9.35-6.285 28.874 28.874 0 00-11.05-2.225c-15.91 0-28.86 13.06-28.86 29.178a29.254 29.254 0 008.46 20.632l20.4 20.633 20.401-20.633a9.864 9.864 0 000-13.755 9.577 9.577 0 00-13.612 0l-6.79 6.913-6.789-6.913a9.788 9.788 0 01-2.785-6.877 9.573 9.573 0 012.742-6.877 9.617 9.617 0 016.832-2.884z" fill="#fff"/></svg>