<svg width="190" height="150" fill="none" xmlns="http://www.w3.org/2000/svg"><path d="M171.225 0H18.775C8.405 0 0 8.395 0 18.75v112.5C0 141.605 8.406 150 18.775 150h152.45c10.369 0 18.775-8.395 18.775-18.75V18.75C190 8.395 181.594 0 171.225 0z" fill="#03A9F4"/><path fill-rule="evenodd" clip-rule="evenodd" d="M25.917 57.095a8.594 8.594 0 00-3.037 1.04 8.199 8.199 0 00-3.71 4.885c-.285 1.125-.289 1.333-.266 12.417l.022 10.698.186.7c.898 3.38 3.502 5.686 6.91 6.117.75.094 20.848.092 21.613-.004a8.015 8.015 0 005.177-2.746 8.22 8.22 0 001.73-3.367l.187-.7.021-10.747c.023-11.711.032-11.434-.37-12.71a8.033 8.033 0 00-6.744-5.59c-.738-.09-21.005-.084-21.719.007zm68.948 10.6c.021 9.273.031 10.018.147 10.505a8.633 8.633 0 002.35 4.34 7.687 7.687 0 007.601 2.087 8.56 8.56 0 003.651-2.197 8.75 8.75 0 00.942-10.789 10.354 10.354 0 00-2.121-2.198 7.88 7.88 0 00-7.846-.73l-.468.223.658 1.433c.208.491.446.97.712 1.433.214-.066.424-.141.629-.228a4.666 4.666 0 014.391.482 4.916 4.916 0 011.721 1.981c.394.745.584 1.58.551 2.42a5.107 5.107 0 01-2.899 4.722 4.187 4.187 0 01-2.028.446 4.754 4.754 0 01-4.028-2.175 4.884 4.884 0 01-.762-1.768c-.119-.521-.133-1.082-.17-6.999-.023-3.538-.042-7.903-.042-9.7v-3.269H94.84l.024 9.98zm63.419 3.583V84.77h2.799v-2.675l.001-2.675.773-.926c.257-.325.532-.634.824-.927.028 0 1.261 1.62 2.739 3.6l2.689 3.6h1.596c1.258 0 1.585-.018 1.543-.087-.029-.048-1.519-2.1-3.311-4.562a1154.568 1154.568 0 01-3.312-4.56c-.033-.053 1.088-1.481 3.063-3.9 1.713-2.1 3.115-3.831 3.115-3.848 0-.018-.748-.032-1.662-.032h-1.662l-3.181 3.805-3.182 3.808-.018-8.804-.017-8.804h-2.797v13.494zM45.557 62.579a6.11 6.11 0 011.098.4 4.835 4.835 0 012.086 2.08c.522 1.079.5.725.496 8.073l-.005 6.572-.159-.455c-.498-1.42-1.555-2.957-3.188-4.639-2.343-2.413-5.081-4.306-7.286-5.04-1.246-.415-1.827-.4-2.944.07-2.361.995-6.728 4.29-9.598 7.242-.539.554-1.105 1.173-1.26 1.377l-.28.37-.017-6.024c-.02-6.748-.038-6.467.485-7.547A5.004 5.004 0 0127.012 63c1.094-.55.551-.52 9.803-.526 7.269-.005 8.298.007 8.742.105zm85.955 8.89l.021 7.674.157.56a7.89 7.89 0 001.024 2.162 8.656 8.656 0 002.071 1.916c.948.584 2.186.99 3.013.99h.275l-.018-1.486-.019-1.486-.357-.043c-1.209-.147-2.255-.945-2.857-2.18-.511-1.045-.528-1.214-.528-5.15v-3.428h3.777v-2.867h-3.778v-4.334h-2.803l.022 7.673zm-59.226-3.375a6.974 6.974 0 00-2.025.666 8.417 8.417 0 00-4.538 6.15c-.097.56-.113 1.341-.113 5.26v4.601h3l.023-4.632c.026-5.21 0-4.933.575-6.1a4.865 4.865 0 014.023-2.8l.492-.048v-3.2l-.472.007c-.324.01-.646.042-.965.096zm4.446 4.529c.001 4.891.03 5.44.34 6.638.948 3.645 3.776 5.78 7.457 5.625 3.228-.134 5.62-1.99 6.64-5.15.444-1.377.46-1.61.46-6.947v-4.797h-3.001l-.023 4.981-.023 4.981-.191.616c-.689 2.213-2.095 3.338-4.17 3.334-2.165-.005-3.677-1.241-4.243-3.47l-.17-.672v-9.77H76.73v4.631zm70.675-4.554a7.992 7.992 0 00-6.052 3.911 8.668 8.668 0 00.749 9.939 8.317 8.317 0 003.308 2.367c1.101.398 1.4.447 2.73.443 1.095-.003 1.297-.022 1.908-.186a9.724 9.724 0 002.369-1.046c.486-.311 1.389-1.083 1.389-1.188a3.127 3.127 0 00-.489-.593l-.99-1.04-.5-.526-.251.241a5.28 5.28 0 01-2.555 1.308 5.625 5.625 0 01-2.41-.173 5.268 5.268 0 01-2.321-1.608 7.29 7.29 0 01-1.012-1.876l-.047-.192h12.793l.045-.43a8.76 8.76 0 00-.809-4.78c-1.554-3.123-4.549-4.867-7.854-4.57l-.001-.001zm-27.731.11c-3.273.581-5.94 3.34-6.537 6.76a11.077 11.077 0 00-.006 2.989c.447 2.56 2.074 4.841 4.269 5.981a6.993 6.993 0 003.532.886c.818.03 1.635-.09 2.41-.351a7.974 7.974 0 003.004-1.764l.344-.35-.253-.3c-.14-.166-.579-.645-.977-1.065l-.723-.765-.486.402a5.98 5.98 0 01-2.06 1.07c-.783.16-1.59.158-2.372-.005a5.424 5.424 0 01-2.639-1.712 7.248 7.248 0 01-1.025-1.88l-.036-.157h12.767l.045-.325c.072-.896.053-1.798-.058-2.69a8.56 8.56 0 00-4.487-6.062 7.774 7.774 0 00-4.712-.661zm-77.392.973c-.315.03-.62.13-.892.29a.437.437 0 00.035.63c.243.227 3.207 2.045 3.333 2.043.286-.002.322-.104.322-.922 0-.739-.013-.81-.197-1.123a1.77 1.77 0 00-1.057-.787 5.337 5.337 0 00-1.544-.13zm107.012 2.028a5.421 5.421 0 012.795 1.854c.362.479.863 1.454.893 1.74l.019.174h-9.722l.017-.174c.029-.292.618-1.407.976-1.85a4.972 4.972 0 015.022-1.745zm-26.789.128a5.431 5.431 0 012.664 2.047c.284.428.728 1.353.728 1.519 0 .098-.501.109-4.896.109-2.693 0-4.896-.018-4.896-.04.161-.482.367-.947.615-1.39a6.5 6.5 0 01.847-1.019 4.935 4.935 0 012.322-1.334 5.205 5.205 0 012.616.108zm-84.28 4.642a23.074 23.074 0 015.857 4.276c.67.715 1.269 1.594 1.464 2.147a1.928 1.928 0 01-.104 1.623 2.84 2.84 0 01-1.394.925c-.49.125-4.182.128-5.612.002-3.298-.288-6.254-.73-8.079-1.208-1.574-.413-1.818-.686-1.463-1.635.623-1.664 4.854-5.233 7.435-6.27.692-.279 1.083-.25 1.896.14z" fill="#fff"/></svg>